<svg width="22" height="37" viewBox="0 0 22 37" fill="none" xmlns="http://www.w3.org/2000/svg">
<path d="M20.352 35.3896C20.655 35.0906 20.896 34.7348 21.0614 34.3426C21.2267 33.9504 21.3131 33.5294 21.3155 33.1038C21.3179 32.6781 21.2364 32.2562 21.0756 31.8621C20.9147 31.468 20.6777 31.1095 20.3782 30.8071L7.8405 18.1252L20.5224 5.58754C21.1335 4.98335 21.4796 4.16113 21.4846 3.30176C21.4895 2.44239 21.1528 1.61626 20.5486 1.00511C19.9444 0.39397 19.1222 0.0478781 18.2628 0.0429634C17.4035 0.0380487 16.5773 0.374714 15.9662 0.978906L0.963618 15.8109C0.660617 16.1098 0.419549 16.4656 0.254213 16.8578C0.0888779 17.25 0.00252392 17.671 8.96973e-05 18.0966C-0.00234452 18.5223 0.0791888 18.9442 0.240027 19.3383C0.400866 19.7324 0.637849 20.0909 0.937411 20.3933L15.7694 35.3958C16.9973 36.6379 19.0772 36.6498 20.352 35.3896Z" fill="white"/>
</svg>
